<?xml version="1.0" encoding="UTF-8"?>
<svg version="1.1" xmlns="http://www.w3.org/2000/svg" width="736" height="552">
<path d="M0 0 C242.88 0 485.76 0 736 0 C736 182.16 736 364.32 736 552 C493.12 552 250.24 552 0 552 C0 369.84 0 187.68 0 0 Z " fill="#FEFEFE" transform="translate(0,0)"/>
<path d="M0 0 C0.84320801 -0.01385742 1.68641602 -0.02771484 2.55517578 -0.04199219 C15.41975551 0.05722722 24.62352573 5.55947154 33.875 14.125 C46.03671305 26.8283278 46.10077226 41.21517845 45.8671875 57.77734375 C45.25128469 79.53212862 35.83005781 98.06524621 20.2578125 113.08984375 C7.77883906 123.92100022 -9.30975614 131.43015659 -25.96212769 131.52890015 C-27.04950729 131.53750061 -28.1368869 131.54610107 -29.25721741 131.55496216 C-30.43545578 131.55922211 -31.61369415 131.56348206 -32.82763672 131.56787109 C-34.70697655 131.58013733 -34.70697655 131.58013733 -36.62428284 131.59265137 C-40.76774789 131.61744632 -44.91117655 131.63417388 -49.0546875 131.6484375 C-50.48882171 131.65380328 -51.92295587 131.65918079 -53.35709 131.66456985 C-59.33126135 131.68618729 -65.30543015 131.70491644 -71.27963066 131.71619225 C-79.79785005 131.73238295 -88.31560992 131.76545406 -96.83365619 131.82259309 C-102.8458668 131.86152513 -108.85795576 131.88085256 -114.87028897 131.88611281 C-118.44908411 131.8897366 -122.02738793 131.90143385 -125.60604477 131.93421555 C-154.17725947 132.18314023 -154.17725947 132.18314023 -167.375 126.375 C-168.50195282 125.88792572 -169.62890564 125.40085144 -170.79000854 124.89901733 C-191.0262963 115.76177833 -203.62685506 98.5246528 -211.60791016 78.44873047 C-213.20861093 74.12143818 -214.04572895 69.96377737 -214.375 65.375 C-214.46652344 64.43785156 -214.55804688 63.50070312 -214.65234375 62.53515625 C-215.27551561 50.96847859 -211.27451229 40.31372833 -203.671875 31.625 C-193.59330647 21.75211654 -182.93831177 17.19180586 -169.0625 15.75 C-168.0206958 15.63084229 -166.9788916 15.51168457 -165.90551758 15.38891602 C-157.3958637 14.43278238 -148.87160855 13.61112434 -140.34375 12.8359375 C-135.74456239 12.41605789 -131.15382089 11.9351536 -126.5625 11.4375 C-118.27791866 10.54741374 -109.98417508 9.76798898 -101.6875 9 C-90.09678853 7.92701533 -78.51251949 6.79957266 -66.93093872 5.63214111 C-64.37523182 5.37502332 -61.81936401 5.11957298 -59.26342773 4.86474609 C-58.42470627 4.78110809 -57.5859848 4.69747009 -56.72184753 4.61129761 C-55.04282502 4.44388108 -53.36379875 4.27650209 -51.68476868 4.10916138 C-47.73408944 3.71446526 -43.7839685 3.3154052 -39.83496094 2.90429688 C-13.10822858 0.12202109 -13.10822858 0.12202109 0 0 Z " fill="#010001" transform="translate(452.375,274.625)"/>
<path d="M0 0 C1.75957031 -0.02126953 1.75957031 -0.02126953 3.5546875 -0.04296875 C7.25917973 0.06047032 10.85881042 0.52991347 14.52734375 1.046875 C24.75175334 2.4726979 35.022844 3.36212743 45.30130005 4.30322266 C51.26664131 4.84990518 57.23101409 5.4069135 63.1953125 5.96484375 C64.35170731 6.0729538 65.50810211 6.18106384 66.69953918 6.29244995 C75.54115701 7.12319308 84.36927617 8.03809195 93.19506836 9.02319336 C100.9611205 9.87713316 108.73382279 10.63744425 116.51171875 11.375 C117.64082169 11.48227417 118.76992462 11.58954834 119.9332428 11.70007324 C125.6061471 12.23817651 131.27943683 12.77167845 136.95336914 13.29882812 C143.34715957 13.89753371 149.73710137 14.52895375 156.125 15.1875 C157.21353271 15.29884277 158.30206543 15.41018555 159.42358398 15.52490234 C162.65438157 15.86372869 165.88186952 16.22499633 169.109375 16.59375 C170.55162445 16.74354309 170.55162445 16.74354309 172.02301025 16.8963623 C185.75473838 18.53661043 196.82587847 24.98261988 206.125 35.1875 C208.51349226 39.04432766 210.39362748 42.99945025 212.125 47.1875 C212.47416473 47.94109299 212.82332947 48.69468597 213.18307495 49.47111511 C214.27540464 52.6212467 214.36562146 55.11493193 214.35205078 58.4465332 C214.35189972 59.68744217 214.35174866 60.92835114 214.35159302 62.2068634 C214.34138143 63.55067101 214.33094946 64.89447695 214.3203125 66.23828125 C214.31657931 67.6211883 214.31373378 69.00409802 214.31173706 70.38700867 C214.30412462 74.0153034 214.28449691 77.64343637 214.2623291 81.27166748 C214.24181899 84.97861544 214.23272433 88.6855897 214.22265625 92.39257812 C214.20124855 99.65762559 214.16714175 106.92254007 214.125 114.1875 C212.66092779 111.31525927 211.47528484 108.46810912 210.375 105.4375 C206.24112687 95.11038836 198.06801905 86.27494322 188.125 81.1875 C181.54891002 78.68110817 175.50898738 77.69731313 168.5 77.8125 C167.56526855 77.82120117 166.63053711 77.82990234 165.66748047 77.83886719 C152.53617789 78.09729902 139.47829394 79.59109148 126.42541504 80.94995117 C122.38615586 81.36705907 118.34540262 81.76915702 114.3046875 82.171875 C112.61857011 82.3399979 110.93245357 82.50812947 109.24633789 82.67626953 C108.40410675 82.76023987 107.56187561 82.84421021 106.69412231 82.9307251 C104.10641719 83.18935729 101.5188857 83.44966645 98.93139648 83.71044922 C90.2667023 84.58279344 81.60105751 85.43407604 72.92895508 86.23022461 C66.91885294 86.78242531 60.9105228 87.3531122 54.90222168 87.92449951 C51.66971438 88.23061515 48.43689381 88.53333446 45.20410156 88.83642578 C39.29370785 89.3923338 33.38450215 89.95974128 27.47625065 90.53792191 C24.14818893 90.86329176 20.81982751 91.18260251 17.49032593 91.49310303 C13.71744698 91.84585756 9.94662604 92.21604438 6.17578125 92.58984375 C4.49296555 92.74145714 4.49296555 92.74145714 2.77615356 92.89613342 C-10.98015763 94.30283468 -24.75999683 98.06034023 -34.3125 108.6875 C-39.43753442 115.32508039 -42.19450489 122.30285215 -44.875 130.1875 C-45.205 130.1875 -45.535 130.1875 -45.875 130.1875 C-45.99122819 118.13877494 -46.0798846 106.09018488 -46.13406086 94.04101181 C-46.16007253 88.44510745 -46.19531599 82.84958873 -46.25219727 77.25390625 C-46.30681831 71.84627786 -46.33648383 66.43901869 -46.34938622 61.03113556 C-46.35857228 58.97559046 -46.37650975 56.92006388 -46.40365028 54.86467743 C-46.58201232 40.78782561 -45.75008518 30.21345984 -37.1875 18.4375 C-36.60613281 17.61765625 -36.02476562 16.7978125 -35.42578125 15.953125 C-34.91402344 15.37046875 -34.40226563 14.7878125 -33.875 14.1875 C-33.215 14.1875 -32.555 14.1875 -31.875 14.1875 C-31.545 13.1975 -31.215 12.2075 -30.875 11.1875 C-22.10319843 3.69450322 -11.39736523 0.06127616 0 0 Z " fill="#9B82F6" transform="translate(283.875,197.8125)"/>
<path d="M0 0 C1.87561615 -0.01489471 1.87561615 -0.01489471 3.78912354 -0.03009033 C7.18839516 -0.05412239 10.58742379 -0.06917469 13.98675084 -0.07811165 C16.1212021 -0.08401778 18.25563297 -0.09223524 20.39007378 -0.10112 C27.09951154 -0.1284 33.8089014 -0.14776677 40.51839072 -0.15552378 C48.2056297 -0.16446574 55.89215402 -0.19949953 63.57917601 -0.25752497 C69.56011085 -0.30107038 75.54084694 -0.32094876 81.52193826 -0.32360601 C85.07620229 -0.32568026 88.62979162 -0.33701586 92.18388557 -0.37324524 C109.85057858 -0.54312996 125.6293122 -0.23713842 141.01147461 9.32226562 C141.83647461 9.63164062 142.66147461 9.94101563 143.51147461 10.25976562 C146.467759 11.51618649 148.53616182 13.29123975 151.01147461 15.32226562 C151.64698242 15.61359375 152.28249023 15.90492188 152.93725586 16.20507812 C155.40696615 17.5352799 156.81555195 19.07151891 158.63647461 21.19726562 C159.52206055 22.21433594 159.52206055 22.21433594 160.42553711 23.25195312 C161.92985568 25.21571875 162.91761121 27.11645843 164.01147461 29.32226562 C165.63700744 31.0290751 167.30263456 32.69886757 169.01147461 34.32226562 C171.23842866 36.54921968 171.97179636 38.28988363 173.13647461 41.19726562 C173.6662793 42.49277344 173.6662793 42.49277344 174.20678711 43.81445312 C175.01147461 46.32226562 175.01147461 46.32226562 175.01147461 50.32226562 C176.00147461 50.65226562 176.99147461 50.98226562 178.01147461 51.32226562 C178.3269328 52.98837491 178.638663 54.65519012 178.94897461 56.32226562 C179.12299805 57.25039062 179.29702148 58.17851562 179.47631836 59.13476562 C180.54922065 65.52519096 181.13528044 71.61841916 181.10913086 78.10351562 C181.10700844 79.15194641 181.10700844 79.15194641 181.10484314 80.22155762 C181.09931131 82.42183992 181.08677238 84.62201485 181.07397461 86.82226562 C181.06895077 88.32747247 181.06438942 89.83268094 181.06030273 91.33789062 C181.04936438 94.99938297 181.0321482 98.66081379 181.01147461 102.32226562 C180.35147461 102.32226562 179.69147461 102.32226562 179.01147461 102.32226562 C178.78073242 101.76539063 178.54999023 101.20851563 178.31225586 100.63476562 C172.95172486 88.09154685 166.22266646 79.51740603 153.76147461 73.33007812 C144.42188722 69.90733161 134.45779995 69.43851415 124.63647461 68.50976562 C122.88316683 68.33973389 121.12991292 68.16914597 119.37670898 67.99804688 C115.59540041 67.62982625 111.81380854 67.26472137 108.03198242 66.90185547 C101.83425643 66.30647119 95.63761762 65.70024532 89.44116211 65.09179688 C88.38195053 64.98779068 87.32273895 64.88378448 86.23143005 64.77662659 C84.07570164 64.5649241 81.91997554 64.35319814 79.76425171 64.14144897 C76.50078054 63.82121625 73.23722119 63.50189718 69.97363281 63.18286133 C55.77358639 61.7942225 41.57599771 60.38265314 27.38024902 58.95077515 C18.77960926 58.08380854 10.17795314 57.2355233 1.57006836 56.44335938 C0.44185417 56.33927765 0.44185417 56.33927765 -0.70915222 56.23309326 C-4.23830459 55.90822374 -7.7677456 55.58728668 -11.29785156 55.27294922 C-13.13246948 55.10593506 -13.13246948 55.10593506 -15.00415039 54.93554688 C-16.60178223 54.79306519 -16.60178223 54.79306519 -18.23168945 54.64770508 C-20.57924213 54.37058077 -22.70925264 53.91683203 -24.98852539 53.32226562 C-38.16358289 52.34574253 -50.15936615 54.23782416 -60.98852539 62.32226562 C-61.99915039 63.04414063 -63.00977539 63.76601562 -64.05102539 64.50976562 C-71.3342622 70.88011717 -75.20789746 79.23772964 -77.98852539 88.32226562 C-78.31852539 88.32226562 -78.64852539 88.32226562 -78.98852539 88.32226562 C-79.38342344 75.94879349 -78.39965348 64.46401781 -75.98852539 52.32226562 C-75.32852539 52.32226562 -74.66852539 52.32226562 -73.98852539 52.32226562 C-73.95114258 51.70738281 -73.91375977 51.0925 -73.87524414 50.45898438 C-73.80950195 49.65074219 -73.74375977 48.8425 -73.67602539 48.00976562 C-73.61801758 47.20925781 -73.56000977 46.40875 -73.50024414 45.58398438 C-72.88949624 42.88457189 -71.9491412 42.20542501 -69.98852539 40.32226562 C-69.31341907 38.65899966 -68.64743901 36.99201263 -67.98852539 35.32226562 C-66.8798174 33.67750777 -65.71114196 32.0717101 -64.48852539 30.50976562 C-63.88008789 29.71957031 -63.27165039 28.929375 -62.64477539 28.11523438 C-62.09821289 27.52355469 -61.55165039 26.931875 -60.98852539 26.32226562 C-60.32852539 26.32226562 -59.66852539 26.32226562 -58.98852539 26.32226562 C-58.90086914 25.73703125 -58.81321289 25.15179688 -58.72290039 24.54882812 C-57.33697249 20.34681268 -53.43946053 17.89749354 -49.98852539 15.32226562 C-46.98852539 13.88476562 -46.98852539 13.88476562 -44.98852539 13.32226562 C-44.98852539 12.66226563 -44.98852539 12.00226563 -44.98852539 11.32226562 C-44.32852539 11.32226562 -43.66852539 11.32226562 -42.98852539 11.32226562 C-42.98852539 10.66226563 -42.98852539 10.00226563 -42.98852539 9.32226562 C-42.42262695 9.12890625 -41.85672852 8.93554688 -41.27368164 8.73632812 C-40.54020508 8.4759375 -39.80672852 8.21554688 -39.05102539 7.94726562 C-38.32012695 7.69203125 -37.58922852 7.43679687 -36.83618164 7.17382812 C-34.80170423 6.4695515 -34.80170423 6.4695515 -33.98852539 4.32226562 C-32.09008789 3.75976562 -32.09008789 3.75976562 -29.61352539 3.32226562 C-28.82204102 3.17789063 -28.03055664 3.03351563 -27.21508789 2.88476562 C-26.15032227 2.69914063 -25.08555664 2.51351562 -23.98852539 2.32226562 C-23.24116906 2.16350197 -22.49381273 2.00473831 -21.72380924 1.84116364 C-14.4336115 0.35846273 -7.4255421 0.01434719 0 0 Z " fill="#FAE6A2" transform="translate(316.988525390625,145.677734375)"/>
<path d="M0 0 C3.1027832 0.61279297 3.1027832 0.61279297 5.6027832 2.17529297 C7.1027832 4.61279297 7.1027832 4.61279297 6.99049377 7.92860413 C5.94235892 12.27858806 4.56494646 13.87938404 1.39941406 16.99731445 C0.91158951 17.48601517 0.42376495 17.97471588 -0.07884216 18.47822571 C-1.68286932 20.07809744 -3.30702923 21.65570082 -4.93237305 23.23388672 C-6.05326233 24.34357663 -7.17282767 25.45460529 -8.29112244 26.56690979 C-11.22900097 29.48194873 -14.18444975 32.37851508 -17.14398193 35.27154541 C-20.16438876 38.23042524 -23.16774866 41.2064987 -26.17260742 44.18115234 C-32.06430214 50.00862036 -37.97467819 55.81667549 -43.8972168 61.61279297 C-47.92913072 59.74429071 -50.81723632 57.08420602 -53.9753418 54.01123047 C-54.54677917 53.45593658 -55.11821655 52.9006427 -55.70697021 52.32852173 C-56.91006446 51.15302592 -58.1101391 49.97443268 -59.30737305 48.79296875 C-60.53224772 47.59117425 -61.76601542 46.39837592 -63.00854492 45.21484375 C-64.80918677 43.49965124 -66.58172424 41.75935714 -68.3503418 40.01123047 C-68.90651184 39.4900766 -69.46268188 38.96892273 -70.03570557 38.43197632 C-72.94159062 35.49259685 -74.2458666 33.55210545 -74.34155273 29.34179688 C-73.8972168 25.61279297 -73.8972168 25.61279297 -72.3347168 23.55029297 C-68.89538268 22.22747215 -66.28129035 22.29692226 -62.8972168 23.61279297 C-59.60434943 26.1715982 -56.80735892 29.13732001 -53.9597168 32.17529297 C-53.18047852 32.98160156 -52.40124023 33.78791016 -51.59838867 34.61865234 C-49.68370839 36.60381166 -47.78445333 38.60158435 -45.8972168 40.61279297 C-42.62808843 39.18709158 -40.53097989 37.46017708 -38.06591797 34.89746094 C-37.32802536 34.13682343 -36.59013275 33.37618591 -35.82987976 32.59249878 C-35.04128067 31.77161774 -34.25268158 30.95073669 -33.44018555 30.10498047 C-31.75408828 28.37898542 -30.06721521 26.65374796 -28.37963867 24.92919922 C-25.72517732 22.20661169 -23.07645456 19.47920037 -20.44091797 16.73828125 C-17.89396999 14.09458966 -15.32547242 11.47349969 -12.75268555 8.85498047 C-11.97015915 8.03005096 -11.18763275 7.20512146 -10.38139343 6.35519409 C-4.83884929 0.76085396 -4.83884929 0.76085396 0 0 Z " fill="#F9F9F9" transform="translate(343.897216796875,318.38720703125)"/>
<path d="M0 0 C16.80388849 -0.11727692 33.60764237 -0.20520368 50.41184235 -0.25906086 C58.21594499 -0.28474257 66.01979201 -0.31969855 73.82373047 -0.37719727 C80.63291122 -0.42734239 87.44190666 -0.45936374 94.25126696 -0.47044247 C97.85029605 -0.47690925 101.44879546 -0.49189211 105.0476532 -0.52865028 C133.8407756 -0.81181505 133.8407756 -0.81181505 147 5 C147 5.33 147 5.66 147 6 C144.95756745 5.91212085 142.91600387 5.80393311 140.875 5.6875 C139.16957031 5.60048828 139.16957031 5.60048828 137.4296875 5.51171875 C134 5 134 5 131.56259155 3.49504089 C126.27348025 1.2754663 121.25037962 1.56068971 115.56884766 1.56762695 C113.69484787 1.55233948 113.69484787 1.55233948 111.7829895 1.53674316 C108.37010518 1.51178086 104.95765081 1.4998974 101.54471254 1.49388909 C97.97321286 1.48448895 94.40183684 1.45828429 90.83041382 1.43388367 C84.07327167 1.39025994 77.31615358 1.36168771 70.55891359 1.33856028 C62.8635654 1.31148641 55.16834187 1.2675763 47.47308278 1.22227156 C31.64878598 1.12948445 15.8244657 1.05777664 0 1 C0 0.67 0 0.34 0 0 Z " fill="#F2E8B3" transform="translate(304,146)"/>
<path d="M0 0 C6.27 0 12.54 0 19 0 C19 0.66 19 1.32 19 2 C20.31355469 1.98839844 21.62710937 1.97679687 22.98046875 1.96484375 C24.71614441 1.95546172 26.45182161 1.94636196 28.1875 1.9375 C29.48397461 1.92493164 29.48397461 1.92493164 30.80664062 1.91210938 C35.0441865 1.89587357 38.85039207 2.08626183 43 3 C45.52262457 3.15186369 48.0380464 3.27392756 50.5625 3.375 C60.48522792 3.85066408 70.20752091 5.38986125 80 7 C80 7.33 80 7.66 80 8 C69.17258982 8.31773713 58.62684021 7.32592417 47.875 6.1875 C46.10681838 6.00507246 44.33858864 5.82311067 42.5703125 5.64160156 C28.37143603 4.17629778 14.18092174 2.62990467 0 1 C0 0.67 0 0.34 0 0 Z " fill="#F3DFC1" transform="translate(280,197)"/>
<path d="M0 0 C5.19554937 0.75264425 10.41832183 1.2190703 15.64453125 1.703125 C16.5876416 1.79062012 17.53075195 1.87811523 18.50244141 1.96826172 C20.73710762 2.17381958 22.97193957 2.37725417 25.20703125 2.578125 C25.20703125 2.908125 25.20703125 3.238125 25.20703125 3.578125 C19.92703125 3.578125 14.64703125 3.578125 9.20703125 3.578125 C9.20703125 4.568125 9.20703125 5.558125 9.20703125 6.578125 C6.56703125 6.578125 3.92703125 6.578125 1.20703125 6.578125 C1.20703125 5.258125 1.20703125 3.938125 1.20703125 2.578125 C0.14742188 2.51753906 -0.9121875 2.45695313 -2.00390625 2.39453125 C-3.39194096 2.31012373 -4.77996107 2.22547583 -6.16796875 2.140625 C-7.21597656 2.08165039 -7.21597656 2.08165039 -8.28515625 2.02148438 C-13.56640625 1.69140625 -13.56640625 1.69140625 -15.79296875 0.578125 C-18.68209607 0.66750918 -21.5369013 0.812173 -24.41796875 1.015625 C-25.21976562 1.06783203 -26.0215625 1.12003906 -26.84765625 1.17382812 C-28.82975978 1.30360871 -30.81141374 1.44022235 -32.79296875 1.578125 C-26.07208162 -5.14276213 -8.51909406 -1.27015247 0 0 Z " fill="#AA8FDB" transform="translate(302.79296875,199.421875)"/>
<path d="M0 0 C10.55675665 0.8120582 19.22278779 8.40448663 26 16 C28.4089381 19.8581399 30.2911808 23.79046978 32 28 C32.37769531 28.84304687 32.75539063 29.68609375 33.14453125 30.5546875 C34.05228471 33.14945309 34.20662179 35.07817002 34.125 37.8125 C34.10695313 38.60269531 34.08890625 39.39289063 34.0703125 40.20703125 C34.04710937 40.79871094 34.02390625 41.39039063 34 42 C31.86820176 38.80230264 31.36753633 36.52783506 30.66015625 32.83984375 C30.06811776 30.61509461 30.06811776 30.61509461 27 29 C27.04125 28.13375 27.0825 27.2675 27.125 26.375 C26.92362612 20.93790521 23.78523858 16.78523858 20 13 C17.42938689 12.35232207 17.42938689 12.35232207 15 12 C15 10.68 15 9.36 15 8 C14.01 8 13.02 8 12 8 C11 7 10 6 9 5 C6.7396956 4.00626561 6.7396956 4.00626561 4.3125 3.3125 C3.50425781 3.06113281 2.69601562 2.80976563 1.86328125 2.55078125 C1.24839844 2.36902344 0.63351562 2.18726563 0 2 C0 1.34 0 0.68 0 0 Z " fill="#AA8FCE" transform="translate(464,217)"/>
<path d="M0 0 C9.11796878 -0.09597862 18.2066009 -0.09246232 27.3125 0.4375 C28.01044678 0.47673584 28.70839355 0.51597168 29.42749023 0.55639648 C32.16423828 0.73059877 34.80757699 0.95898193 37.4921875 1.53125 C40.93186686 2.17418072 44.32857427 2.1058407 47.8125 2.0625 C48.50537109 2.05798828 49.19824219 2.05347656 49.91210938 2.04882812 C51.60811068 2.03713156 53.30406703 2.01919924 55 2 C55.495 2.99 55.495 2.99 56 4 C58.02463255 4.65213292 58.02463255 4.65213292 60 5 C60 5.66 60 6.32 60 7 C47.08498522 5.72202997 34.17449814 4.40389828 21.2668457 3.0534668 C14.18218452 2.31573488 7.09571145 1.62287491 0 1 C0 0.67 0 0.34 0 0 Z " fill="#EED9C2" transform="translate(408,210)"/>
<path d="M0 0 C0.33 0 0.66 0 1 0 C1 27.39 1 54.78 1 83 C1.99 83 2.98 83 4 83 C3.11223998 86.69900008 2.05418136 90.34550461 1 94 C0.67 94 0.34 94 0 94 C0 62.98 0 31.96 0 0 Z " fill="#9D87DF" transform="translate(238,234)"/>
<path d="M0 0 C6.64168918 -0.11070397 13.12344001 0.17329456 19.7265625 0.875 C21.03710098 1.00817627 21.03710098 1.00817627 22.37411499 1.14404297 C25.12491723 1.42465593 27.87494166 1.71219758 30.625 2 C32.50646307 2.19317002 34.38797319 2.3858824 36.26953125 2.578125 C40.84691422 3.04680289 45.42361395 3.52168974 50 4 C50 4.33 50 4.66 50 5 C39.44 5 28.88 5 18 5 C18 4.34 18 3.68 18 3 C17.34773438 3.08378906 16.69546875 3.16757813 16.0234375 3.25390625 C11.11750856 3.82554104 6.86872815 4.15311982 2 3 C2 2.34 2 1.68 2 1 C1.34 0.67 0.68 0.34 0 0 Z " fill="#A389D8" transform="translate(390,209)"/>
<path d="M0 0 C0.66 0 1.32 0 2 0 C2 0.99 2 1.98 2 3 C2.66 3 3.32 3 4 3 C4.33 5.31 4.66 7.62 5 10 C5.66 10 6.32 10 7 10 C8.65522397 12.93517449 9.29920064 15.2749358 9.5625 18.625 C9.81884544 21.93666003 9.81884544 21.93666003 11 25 C11.08705146 27.98970289 11.11550145 30.95584955 11.09765625 33.9453125 C11.0962413 34.8303244 11.09482635 35.7153363 11.09336853 36.62716675 C11.0877614 39.45981191 11.07520771 42.29237864 11.0625 45.125 C11.05748592 47.04296761 11.05292285 48.96093646 11.04882812 50.87890625 C11.03778966 55.58596782 11.02052025 60.2929706 11 65 C10.01 65.495 10.01 65.495 9 66 C9.01571045 64.58074219 9.01571045 64.58074219 9.03173828 63.1328125 C9.06861327 59.53942829 9.09113923 55.94605978 9.10986328 52.35253906 C9.1197703 50.81279669 9.13329969 49.27307233 9.15087891 47.73339844 C9.46010077 30.13002248 9.46010077 30.13002248 6 13 C5.34 12.67 4.68 12.34 4 12 C2.9296875 9.78515625 2.9296875 9.78515625 1.875 7.0625 C1.52179688 6.16660156 1.16859375 5.27070313 0.8046875 4.34765625 C0 2 0 2 0 0 Z " fill="#FEF8E4" transform="translate(488,184)"/>
<path d="M0 0 C0.33 0 0.66 0 1 0 C1 3.3 1 6.6 1 10 C2.3921875 8.7625 2.3921875 8.7625 3.8125 7.5 C6.625 5 6.625 5 10 5 C8.62302855 7.81739781 7.13009615 10.53478674 5.5625 13.25 C3.24022224 17.39299849 1.5494499 21.51475029 0 26 C-0.33 26 -0.66 26 -1 26 C-1.02724423 23.16660035 -1.04695589 20.33346883 -1.0625 17.5 C-1.07087891 16.70851562 -1.07925781 15.91703125 -1.08789062 15.1015625 C-1.10891185 9.97238283 -0.73937287 5.07663894 0 0 Z " fill="#F6E7A6" transform="translate(239,208)"/>
<path d="M0 0 C0.33 0 0.66 0 1 0 C1 17.49 1 34.98 1 53 C-0.62586597 49.74826806 -1.90715399 46.65996881 -3.125 43.25 C-3.47820312 42.26515625 -3.83140625 41.2803125 -4.1953125 40.265625 C-4.46085937 39.51796875 -4.72640625 38.7703125 -5 38 C-4.34 37.34 -3.68 36.68 -3 36 C-2.01 36 -1.02 36 0 36 C0 24.12 0 12.24 0 0 Z " fill="#9783DD" transform="translate(497,259)"/>
<path d="M0 0 C3.90546892 0.47961899 7.79744628 0.96910198 11.6875 1.5625 C14.51646137 1.93613641 17.15397217 2.08624327 20 2 C20 2.66 20 3.32 20 4 C20.66 4.33 21.32 4.66 22 5 C21.01 6.485 21.01 6.485 20 8 C21.32 8.33 22.64 8.66 24 9 C23.67 9.99 23.34 10.98 23 12 C22.42894531 11.54109375 21.85789062 11.0821875 21.26953125 10.609375 C14.57305195 5.54176904 8.10976474 3.04650803 0 1 C0 0.67 0 0.34 0 0 Z " fill="#9581DF" transform="translate(459,274)"/>
<path d="M0 0 C10.8759124 -0.59684885 21.30761838 1.21053317 32 3 C32 3.33 32 3.66 32 4 C21.1970182 4.34910893 10.71287388 3.26699248 0 2 C0 1.34 0 0.68 0 0 Z " fill="#EED8C8" transform="translate(328,201)"/>
<path d="M0 0 C0.33 0.99 0.66 1.98 1 3 C0.505 3.391875 0.01 3.78375 -0.5 4.1875 C-2.27229454 5.93690736 -2.27229454 5.93690736 -2 8.5625 C-2 9.366875 -2 10.17125 -2 11 C-2.99 11.66 -3.98 12.32 -5 13 C-5.6859857 14.91408601 -5.6859857 14.91408601 -5.94921875 17.1328125 C-6.07490234 17.93847656 -6.20058594 18.74414062 -6.33007812 19.57421875 C-6.50700195 20.83685547 -6.50700195 20.83685547 -6.6875 22.125 C-6.81705078 22.97449219 -6.94660156 23.82398438 -7.08007812 24.69921875 C-7.39839337 26.79774149 -7.7007208 28.89867798 -8 31 C-8.33 31 -8.66 31 -9 31 C-9.85105344 20.67388497 -8.15027481 10.56106966 -1.828125 2.08984375 C-0.92320312 1.05537109 -0.92320312 1.05537109 0 0 Z " fill="#1E1C32" transform="translate(247,309)"/>
<path d="M0 0 C-1.32 0.33 -2.64 0.66 -4 1 C-4 1.66 -4 2.32 -4 3 C-9.45275886 3.97758625 -14.42516763 3.97344509 -19.9375 3.5625 C-21.10635742 3.48418945 -21.10635742 3.48418945 -22.29882812 3.40429688 C-24.19966772 3.27601936 -26.09990904 3.13892679 -28 3 C-28 2.67 -28 2.34 -28 2 C-24.83402429 1.65988375 -21.6671312 1.32916813 -18.5 1 C-17.613125 0.90460938 -16.72625 0.80921875 -15.8125 0.7109375 C-10.50765526 0.16485054 -5.33262848 -0.0996753 0 0 Z " fill="#1B1534" transform="translate(396,280)"/>
<path d="M0 0 C0 0.33 0 0.66 0 1 C-5.12202757 2.64038791 -9.82654907 3.41064338 -15.1875 3.6875 C-15.88552734 3.73455078 -16.58355469 3.78160156 -17.30273438 3.83007812 C-20.71640864 4.02820765 -23.74067204 4.1201308 -27 3 C-18.08528071 0.47696624 -9.23985085 -0.17433681 0 0 Z " fill="#150D33" transform="translate(296,290)"/>
<path d="M0 0 C1 3 1 3 0.4375 5 C-1 7 -1 7 -3.8125 8.375 C-7.74884397 10.38176359 -9.36003634 12.50593045 -12 16 C-12 12.65580848 -11.52480606 11.93159679 -9.625 9.3125 C-8.96371094 8.37857422 -8.96371094 8.37857422 -8.2890625 7.42578125 C-7.86367187 6.95527344 -7.43828125 6.48476562 -7 6 C-6.34 6 -5.68 6 -5 6 C-4.67 5.01 -4.34 4.02 -4 3 C-1.9375 1.3125 -1.9375 1.3125 0 0 Z " fill="#A98FDB" transform="translate(257,206)"/>
<path d="M0 0 C0.75 1.625 0.75 1.625 1 4 C0.03452166 5.39827897 -0.93805862 6.79255433 -1.95703125 8.15234375 C-3.64629908 11.14494182 -3.89771522 14.35515759 -4.3125 17.73046875 C-5.18724471 20.6181203 -6.48276445 21.441953 -9 23 C-8.67 21.02 -8.34 19.04 -8 17 C-7.34 17 -6.68 17 -6 17 C-5.96261719 16.38511719 -5.92523438 15.77023438 -5.88671875 15.13671875 C-5.78810547 13.92435547 -5.78810547 13.92435547 -5.6875 12.6875 C-5.62949219 11.88699219 -5.57148438 11.08648437 -5.51171875 10.26171875 C-4.90814507 7.59401524 -3.9982919 6.79438456 -2 5 C-0.80972016 2.40084462 -0.80972016 2.40084462 0 0 Z " fill="#F6E9B5" transform="translate(249,181)"/>
<path d="M0 0 C0.66 0.33 1.32 0.66 2 1 C0.67267046 2.67145202 -0.66226218 4.33686649 -2 6 C-2.42023438 6.55042969 -2.84046875 7.10085937 -3.2734375 7.66796875 C-4.44852243 9.16709225 -5.72033875 10.58909144 -7 12 C-7.99 12 -8.98 12 -10 12 C-9.45991831 8.17723432 -7.93135626 6.72563435 -5 4.3125 C-4.278125 3.71050781 -3.55625 3.10851562 -2.8125 2.48828125 C-2.214375 1.99714844 -1.61625 1.50601563 -1 1 C-0.67 0.67 -0.34 0.34 0 0 Z " fill="#F8EAB9" transform="translate(268,160)"/>
<path d="M0 0 C0.33 1.32 0.66 2.64 1 4 C0.34 4 -0.32 4 -1 4 C-1 4.99 -1 5.98 -1 7 C-0.34 7 0.32 7 1 7 C1.33 9.64 1.66 12.28 2 15 C1.34 15 0.68 15 0 15 C-0.64757625 13.56328432 -1.29299453 12.12559584 -1.9375 10.6875 C-2.29714844 9.88699219 -2.65679687 9.08648437 -3.02734375 8.26171875 C-4 6 -4 6 -5 3 C-3.35 2.67 -1.7 2.34 0 2 C0 1.34 0 0.68 0 0 Z " fill="#F5E1B9" transform="translate(496,233)"/>
<path d="M0 0 C-0.33 0.99 -0.66 1.98 -1 3 C-1.66 3 -2.32 3 -3 3 C-2.979375 4.11375 -2.95875 5.2275 -2.9375 6.375 C-3 10 -3 10 -4 12 C-4.66 12 -5.32 12 -6 12 C-6.33 15.3 -6.66 18.6 -7 22 C-7.33 22 -7.66 22 -8 22 C-8.02698189 20.37509046 -8.04638757 18.75005367 -8.0625 17.125 C-8.07410156 16.22007812 -8.08570313 15.31515625 -8.09765625 14.3828125 C-8 12 -8 12 -7 10 C-6.34 10 -5.68 10 -5 10 C-4.95101562 9.36191406 -4.90203125 8.72382813 -4.8515625 8.06640625 C-4.77679688 7.24011719 -4.70203125 6.41382813 -4.625 5.5625 C-4.55539063 4.73878906 -4.48578125 3.91507813 -4.4140625 3.06640625 C-4.27742187 2.38449219 -4.14078125 1.70257813 -4 1 C-2 0 -2 0 0 0 Z " fill="#FDF8DE" transform="translate(247,186)"/>
<path d="M0 0 C0.45890625 0.39832031 0.9178125 0.79664063 1.390625 1.20703125 C6.84774454 6.09804519 6.84774454 6.09804519 13 10 C12.01 10.99 11.02 11.98 10 13 C6.37 9.37 2.74 5.74 -1 2 C-0.67 1.34 -0.34 0.68 0 0 Z " fill="#0C0C0C" transform="translate(285,344)"/>
<path d="M0 0 C0 3.54404336 -0.60989485 4.10267905 -2.875 6.6875 C-3.40867187 7.31011719 -3.94234375 7.93273437 -4.4921875 8.57421875 C-6 10 -6 10 -8 10 C-8.226875 10.61875 -8.45375 11.2375 -8.6875 11.875 C-10.37929835 14.61410209 -11.99244161 15.05024472 -15 16 C-10.30233025 10.33870569 -5.25276628 5.14771096 0 0 Z " fill="#F2F2F2" transform="translate(331,328)"/>
<path d="M0 0 C4.29 0.33 8.58 0.66 13 1 C13 1.66 13 2.32 13 3 C5.08 3.495 5.08 3.495 -3 4 C-1.68 3.34 -0.36 2.68 1 2 C0.67 1.34 0.34 0.68 0 0 Z " fill="#937FD9" transform="translate(395,276)"/>
<path d="M0 0 C3.3 0.33 6.6 0.66 10 1 C7.56272708 2.62484861 5.62713877 3.65689075 2.9375 4.6875 C2.24527344 4.95949219 1.55304688 5.23148437 0.83984375 5.51171875 C-1 6 -1 6 -3 5 C-3 4.01 -3 3.02 -3 2 C-2.01 1.67 -1.02 1.34 0 1 C0 0.67 0 0.34 0 0 Z " fill="#937FE2" transform="translate(262,291)"/>
<path d="M0 0 C0.2475 0.556875 0.495 1.11375 0.75 1.6875 C1.93642336 4.13288868 1.93642336 4.13288868 4.125 6.1875 C6.74188733 10.112831 6.35957557 13.41541152 6 18 C3.86820176 14.80230264 3.36753633 12.52783506 2.66015625 8.83984375 C2.06811776 6.61509461 2.06811776 6.61509461 -1 5 C-0.67 3.35 -0.34 1.7 0 0 Z " fill="#A88FE1" transform="translate(492,241)"/>
<path d="M0 0 C4.71062571 4.71062571 5.43270056 11.64624626 6 18 C3.99396458 16.6044971 3.09352834 15.50817063 2.6484375 13.08984375 C2.57882812 12.37957031 2.50921875 11.66929687 2.4375 10.9375 C2.41483656 6.99837319 2.41483656 6.99837319 0 5 C-0.125 2.375 -0.125 2.375 0 0 Z " fill="#181433" transform="translate(492,298)"/>
<path d="M0 0 C0.33 0.99 0.66 1.98 1 3 C0.505 3.391875 0.01 3.78375 -0.5 4.1875 C-2.28556637 5.92977264 -2.28556637 5.92977264 -1.875 8.5 C-1.91625 9.325 -1.9575 10.15 -2 11 C-4.5 12.8125 -4.5 12.8125 -7 14 C-5.43181728 8.547001 -3.96189783 4.23513217 0 0 Z " fill="#140F2D" transform="translate(247,309)"/>
<path d="M0 0 C1.13643966 3.40931897 0.86747764 4.00335456 -0.4375 7.1875 C-0.86869141 8.26064453 -0.86869141 8.26064453 -1.30859375 9.35546875 C-1.53675781 9.89816406 -1.76492187 10.44085938 -2 11 C-2.33 11 -2.66 11 -3 11 C-3 7.7 -3 4.4 -3 1 C-2.01 0.67 -1.02 0.34 0 0 Z " fill="#F4E2BF" transform="translate(241,223)"/>
<path d="M0 0 C4.4008703 3.82180842 5.80805531 6.47371099 7 12 C4.04485124 9.24865461 1.8475191 6.60266225 0 3 C0 2.01 0 1.02 0 0 Z " fill="#F4E8B5" transform="translate(482,176)"/>
<path d="M0 0 C0.33 0.99 0.66 1.98 1 3 C0.34 3 -0.32 3 -1 3 C-1 3.66 -1 4.32 -1 5 C-3.375 7.625 -3.375 7.625 -6 10 C-6.66 10 -7.32 10 -8 10 C-6.34908222 5.70761377 -3.26245434 3.1206085 0 0 Z " fill="#F2F2F2" transform="translate(315,344)"/>
<path d="M0 0 C0.99 0 1.98 0 3 0 C2.11223998 3.69900008 1.05418136 7.34550461 0 11 C-0.33 11 -0.66 11 -1 11 C-1.125 3.375 -1.125 3.375 0 0 Z " fill="#8E80CE" transform="translate(239,317)"/>
<path d="M0 0 C0.33 0.99 0.66 1.98 1 3 C-0.75 5.0625 -0.75 5.0625 -3 7 C-4.32 6.67 -5.64 6.34 -7 6 C-4.69 4.02 -2.38 2.04 0 0 Z " fill="#16102C" transform="translate(255,301)"/>
<path d="M0 0 C0.99 0 1.98 0 3 0 C1.34832443 3.5786304 -0.78286492 6.74820188 -3 10 C-3.33 9.34 -3.66 8.68 -4 8 C-3.22265625 6.0546875 -3.22265625 6.0546875 -2.0625 3.875 C-1.49208984 2.78832031 -1.49208984 2.78832031 -0.91015625 1.6796875 C-0.60980469 1.12539062 -0.30945313 0.57109375 0 0 Z " fill="#F5E1BE" transform="translate(246,213)"/>
<path d="M0 0 C0 0.33 0 0.66 0 1 C-4.873261 2.5912689 -8.80790596 3.21192221 -14 3 C-10.07503936 -0.92496064 -5.24412188 -0.08740203 0 0 Z " fill="#0B0621" transform="translate(296,290)"/>
<path d="M0 0 C3.4375 1.3125 3.4375 1.3125 7 3 C7.33 3.99 7.66 4.98 8 6 C6.35 6 4.7 6 3 6 C3 4.68 3 3.36 3 2 C2.01 2 1.02 2 0 2 C0 1.34 0 0.68 0 0 Z " fill="#9F86DD" transform="translate(476,223)"/>
<path d="M0 0 C0.103125 0.639375 0.20625 1.27875 0.3125 1.9375 C0.539375 2.618125 0.76625 3.29875 1 4 C1.99 4.33 2.98 4.66 4 5 C4.33 7.31 4.66 9.62 5 12 C0.02368421 7.18421053 0.02368421 7.18421053 -0.0625 2.875 C-0.041875 1.92625 -0.02125 0.9775 0 0 Z " fill="#F7EABA" transform="translate(491,192)"/>
<path d="M0 0 C0.66 0 1.32 0 2 0 C2 0.99 2 1.98 2 3 C2.66 3 3.32 3 4 3 C5.4783226 5.95664519 5.06032783 8.74229737 5 12 C4 10 4 10 3 8 C2.195625 6.453125 2.195625 6.453125 1.375 4.875 C0 2 0 2 0 0 Z " fill="#FDF5D3" transform="translate(488,184)"/>
<path d="M0 0 C-2.11770166 2.32947183 -4.03335588 3.88750845 -7 5 C-7.99 4.67 -8.98 4.34 -10 4 C-9.34 4 -8.68 4 -8 4 C-8 3.34 -8 2.68 -8 2 C-7.34 2 -6.68 2 -6 2 C-6 1.34 -6 0.68 -6 0 C-3 -1 -3 -1 0 0 Z " fill="#F9EFCC" transform="translate(280,155)"/>
<path d="M0 0 C0.66 0.66 1.32 1.32 2 2 C0.50260417 3.23697917 -0.99479167 4.47395833 -2.4921875 5.7109375 C-3.71051161 6.75250992 -4.86660097 7.86660097 -6 9 C-6 6 -6 6 -4.6875 4.39453125 C-4.130625 3.87246094 -3.57375 3.35039062 -3 2.8125 C-2.443125 2.28269531 -1.88625 1.75289063 -1.3125 1.20703125 C-0.6628125 0.60955078 -0.6628125 0.60955078 0 0 Z " fill="#F3F3F3" transform="translate(339,320)"/>
<path d="M0 0 C1.32 0.33 2.64 0.66 4 1 C1.63707344 3.52588702 0.33537489 4.88820837 -3 6 C-2.67 4.68 -2.34 3.36 -2 2 C-1.34 2 -0.68 2 0 2 C0 1.34 0 0.68 0 0 Z " fill="#917ED2" transform="translate(255,297)"/>
<path d="M0 0 C0 2.62113708 -0.31292445 4.50935112 -1 7 C-2.32 6.67 -3.64 6.34 -5 6 C-3.35 4.02 -1.7 2.04 0 0 Z " fill="#F4E7B5" transform="translate(255,174)"/>
<path d="M0 0 C1.32 0 2.64 0 4 0 C2.25 4.875 2.25 4.875 0 6 C-1.125 2.25 -1.125 2.25 0 0 Z " fill="#917CE1" transform="translate(244,307)"/>
<path d="M0 0 C2.97 0.495 2.97 0.495 6 1 C3.61426621 2.89213369 1.92824652 4.02391783 -1 5 C-0.67 3.35 -0.34 1.7 0 0 Z " fill="#F4E3B7" transform="translate(260,200)"/>
</svg>
